<?xml version="1.0" encoding="utf-8"?>
<!-- Generated by IcoMoon.io -->
<!DOCTYPE svg PUBLIC "-//W3C//DTD SVG 1.1//EN" "http://www.w3.org/Graphics/SVG/1.1/DTD/svg11.dtd">
<svg version="1.1" xmlns="http://www.w3.org/2000/svg" xmlns:xlink="http://www.w3.org/1999/xlink" width="41" height="32" viewBox="0 0 41 32">
<path fill="#333" d="M6.717 9.098v17.994h27.363v-17.994h-27.363zM5.675 7.016h29.815c0.615 0 1.118 0.468 1.118 1.041v19.928c0 0.573-0.503 1.041-1.118 1.041h-29.815c-0.615 0-1.118-0.468-1.118-1.041v-19.928c0-0.572 0.503-1.041 1.118-1.041z"></path>
<path fill="#ff4000" d="M1.628 28.877c-0.895 0-1.628 0.703-1.628 1.561v0c0 0.859 0.732 1.561 1.628 1.561h37.987c0.895 0 1.628-0.702 1.628-1.561v-0c0-0.859-0.732-1.561-1.628-1.561h-37.987zM18.206 29.877h4.83v0.743h-4.83v-0.743z"></path>
<path fill="#ff4000" d="M12.677 8.174c1.053-0.037 2.105-0.074 3.158-0.111 3.666-7.072 10.973-5.375 14.231-0.483 0 0-1.784-0.149-2.006 1.412s-0.149 6.985-0.149 6.985c0 0 0.297 1.078 1.040 1.078s-2.192 1.932-3.493 2.304c-0.483-0.966-5.294-1.801-5.202 1.672 0.088 3.294 5.406 1.998 5.573 0.706 2.527 0.073 6.666-3.257 8.286-7.58 0.26 0.149 1.412-2.081-0.595-4.31-1.003-2.973-2.118-9.772-10.441-9.846s-10.404 8.174-10.404 8.174z"></path>
</svg>
