<?xml version="1.0" encoding="utf-8"?>
<!-- Generated by IcoMoon.io -->
<!DOCTYPE svg PUBLIC "-//W3C//DTD SVG 1.1//EN" "http://www.w3.org/Graphics/SVG/1.1/DTD/svg11.dtd">
<svg version="1.1" xmlns="http://www.w3.org/2000/svg" xmlns:xlink="http://www.w3.org/1999/xlink" width="26" height="32" viewBox="0 0 26 32">
<path fill="#191919" d="M2.182 6.65v22.992h17.551v-22.992h-17.551zM3.896 4.419h14.149c2.143 0 3.896 1.814 3.896 4.031v19.519c0 2.217-1.753 4.031-3.896 4.031h-14.149c-2.143 0-3.896-1.814-3.896-4.031v-19.519c0-2.217 1.753-4.031 3.896-4.031zM6.897 4.684c-0.226 0-0.41 0.184-0.41 0.41 0 0.254 0.008 0.893 0.008 1.334 0.902 0 9.522-0.089 9.918-0.073 0.014-0.344 0.013-1.030 0.013-1.261 0-0.226-0.184-0.41-0.41-0.41h-9.12z"></path>
<path fill="#191919" d="M5.648 6.492h11.751v1.057h-11.751z"></path>
<path fill="#191919" d="M6.474 3.949h10.095c0.274 0 0.499 0.294 0.499 0.653v0c-0.46 0.018-9.853-0.006-11.092 0v0c0-0.359 0.225-0.653 0.499-0.653z"></path>
<path fill="#191919" d="M11.482 0c-0.913 0-1.654 0.74-1.654 1.652s0.741 1.652 1.654 1.652 1.654-0.74 1.654-1.652c0-0.912-0.741-1.652-1.654-1.652zM11.482 0.865c0.435 0 0.788 0.353 0.788 0.787s-0.353 0.788-0.788 0.788-0.789-0.353-0.789-0.788c0-0.435 0.353-0.787 0.789-0.787z"></path>
<path fill="#191919" d="M10.483 2.997h1.947v1.127h-1.947z"></path>
<path fill="#191919" d="M4.251 10.469l1.538 1.743 2.871-3.486-3.011 5.802z"></path>
<path fill="#191919" d="M4.336 16.765l1.538 1.743 2.871-3.486-3.011 5.802z"></path>
<path fill="#191919" d="M4.13 22.975c-0.038-0.573 0.29-0.777 0.769-0.666l0.948 1.127 1.511-1.435c0.351-0.026 0.744 0.27 0.666 0.717l-1.409 1.409c0.342 0.41 0.709 0.692 1.050 1.102-0.117 0.524-0.269 0.637-0.768 0.717l-1.076-0.973-0.922 0.615c-0.356-0.005-0.667-0.231-0.615-0.615l0.82-0.794-0.973-1.204z"></path>
<path fill="#ff4000" d="M8.434 10.935h9.786v1.896h-9.786z"></path>
<path fill="#ff4000" d="M8.383 17.339h8.095l-1.127 1.793h-6.968z"></path>
<path fill="#ff4000" d="M8.331 23.692h4.765v1.793h-4.765z"></path>
<path fill="#191919" d="M18.165 23.743h-0.688c-0.307 0.7-0.82 1.247-1.46 1.793h2.148v-1.793z"></path>
<path fill="#ff4000" d="M13.526 26.343l0.313-3.471 8.867-14.762 2.686 1.646-8.71 14.551-3.157 2.037zM13.942 24.947c0 0 0.589 0.154 0.64 0.384s1.768-1.102 1.768-1.102c0 0 0.051-0.692-0.435-0.513s-0.435-0.41-0.435-0.41c0 0-0.256-0.282-0.564-0.051s-0.205-0.435-0.359-0.461c-0.154-0.026-0.359-0.102-0.461 0.256s-0.154 1.896-0.154 1.896z"></path>
<path fill="#ff4000" d="M23.266 7.451l2.613 1.563 0.538-0.871c0 0-0.026-0.487-0.307-0.666s-1.665-1.050-1.665-1.050c0 0-0.564-0.051-0.692 0.205s-0.487 0.82-0.487 0.82z"></path>
</svg>
