<?xml version="1.0" encoding="utf-8"?>
<!-- Generated by IcoMoon.io -->
<!DOCTYPE svg PUBLIC "-//W3C//DTD SVG 1.1//EN" "http://www.w3.org/Graphics/SVG/1.1/DTD/svg11.dtd">
<svg version="1.1" xmlns="http://www.w3.org/2000/svg" xmlns:xlink="http://www.w3.org/1999/xlink" width="32" height="32" viewBox="0 0 32 32">
<path fill="#ff4000" d="M1.974 24.926h24.556v0.806h-24.556z"></path>
<path fill="#ff4000" d="M4.004 24.964h2.961v-7.257l-2.961 1.881z"></path>
<path fill="#ff4000" d="M8.3 25.145h2.961v-11.114l-2.961 1.881z"></path>
<path fill="#ff4000" d="M17.099 25.045h2.961v-10.563l-2.961 1.881z"></path>
<path fill="#ff4000" d="M21.648 25.122h2.961v-13.869l-2.961 1.881z"></path>
<path fill="#ff4000" d="M12.722 24.887h2.961v-8.359l-1.569 0.997-1.393-1.87z"></path>
<path fill="#191919" d="M1.671 16.949l0.721 1.341 8.682-7.239 3.459 4.513 10.195-7.15 0.901 2.056 2.089-5.631-4.755-0.045 0.973 2.19-9.222 6.033-3.458-4.245-9.691 7.999z"></path>
</svg>
