<?xml version="1.0" encoding="utf-8"?>
<!-- Generated by IcoMoon.io -->
<!DOCTYPE svg PUBLIC "-//W3C//DTD SVG 1.1//EN" "http://www.w3.org/Graphics/SVG/1.1/DTD/svg11.dtd">
<svg version="1.1" xmlns="http://www.w3.org/2000/svg" xmlns:xlink="http://www.w3.org/1999/xlink" width="25" height="32" viewBox="0 0 25 32">
<path fill="#333" d="M12.595 0c6.955 0 12.595 1.665 12.595 3.718s-5.64 3.718-12.595 3.718c-6.955 0-12.595-1.665-12.595-3.718s5.64-3.718 12.595-3.718z"></path>
<path fill="#333" d="M0.16 6.268c0 0-0.093 1.115 3.483 2.508s14.468 1.231 17.975 0.046c3.507-1.184 3.716-2.322 3.716-2.694v5.434c-2.322 4.293-23.155 4.336-25.221 0-0.046-0.697 0.046-5.295 0.046-5.295z"></path>
<path fill="#333" d="M0.16 13.56c0.844 2.95 5.589 3.066 8.314 3.484v3.484c-1.254 0-2.508 0-3.762 0-0.387 0.17-0.658 0.387-1.022 0.79-1.192-0.496-2.802-1.13-3.576-2.322 0.016-1.812 0.031-3.623 0.046-5.434z"></path>
<path fill="#333" d="M25.252 13.746c-1.029 2.694-6.044 3.158-8.885 3.484l0.047 3.367c1.254 0 2.555 0 3.809 0 0.387 0.17 0.588 0.387 0.952 0.79 1.030-0.31 3.141-0.945 4.124-2.206-0.016-1.812-0.031-3.623-0.047-5.434z"></path>
<path fill="#ff4000" d="M10.586 16.022h3.66c0.3 0 0.546 0.235 0.546 0.521v14.935c0 0.287-0.246 0.521-0.546 0.521h-3.66c-0.3 0-0.546-0.235-0.546-0.521v-14.935c0-0.287 0.246-0.521 0.546-0.521z"></path>
<path fill="#ff4000" d="M4.427 25.841v-3.659c0-0.3 0.235-0.546 0.521-0.546h14.935c0.287 0 0.521 0.246 0.521 0.546v3.659c0 0.3-0.235 0.546-0.521 0.546h-14.935c-0.287 0-0.521-0.246-0.521-0.546z"></path>
</svg>
