<?xml version="1.0" encoding="utf-8"?>
<!-- Generated by IcoMoon.io -->
<!DOCTYPE svg PUBLIC "-//W3C//DTD SVG 1.1//EN" "http://www.w3.org/Graphics/SVG/1.1/DTD/svg11.dtd">
<svg version="1.1" xmlns="http://www.w3.org/2000/svg" xmlns:xlink="http://www.w3.org/1999/xlink" width="32" height="32" viewBox="0 0 32 32">
<path fill="#ff4000" d="M4.222 15.827c0.151-5.495 6.627-15.663 18.675-9.036-0.674 1.017-2.372 2.711-2.372 2.711l11.426 2.915-2.803-11.048-2.711 2.108c-0.338 0.263-5.587-5.713-15.821-2.556s-10.61 13.851-10.61 13.851l4.217 1.055z"></path>
<path fill="#191919" d="M27.728 16.173c-0.15 5.495-6.627 15.663-18.675 9.036 0.674-1.017 2.372-2.711 2.372-2.711l-11.426-2.915 2.803 11.048 2.711-2.108c0.338-0.263 5.587 5.714 15.821 2.556s10.61-13.851 10.61-13.851l-4.217-1.055z"></path>
</svg>
