<?xml version="1.0" encoding="utf-8"?>
<!-- Generated by IcoMoon.io -->
<!DOCTYPE svg PUBLIC "-//W3C//DTD SVG 1.1//EN" "http://www.w3.org/Graphics/SVG/1.1/DTD/svg11.dtd">
<svg version="1.1" xmlns="http://www.w3.org/2000/svg" xmlns:xlink="http://www.w3.org/1999/xlink" width="28" height="32" viewBox="0 0 28 32">
<path fill="#191919" d="M21.898 0c-4.886 0-9.772 0-14.658 0-1.469 1.386-6.191 6.123-7.24 7.356l0.014 22.892c0 0.963 0.807 1.753 1.792 1.753h20.092c0.986 0 1.792-0.789 1.792-1.753v-28.495c0-0.964-0.807-1.753-1.792-1.753zM0.956 7.916c1.842-0.001 3.683-0.002 5.525-0.003 0.706-0.284 1.358-0.784 1.521-1.557v-5.575c4.706 0 9.413 0 14.119 0 0.356 0.048 0.694 0.332 0.796 0.688l-0.080 29.076c0.003 0.474-0.194 0.677-0.535 0.663l-9.681 0.037c-3.574 0-7.148 0-10.722 0-0.579-0.060-0.758-0.266-0.975-0.724l0.034-22.604z"></path>
<path fill="#191919" d="M10.012 5.887h10.867v0.869h-10.867z"></path>
<path fill="#191919" d="M10.114 8.9h10.867v0.869h-10.867z"></path>
<path fill="#191919" d="M2.988 11.913h18.096v0.869h-18.096z"></path>
<path fill="#191919" d="M2.988 15.148h3.095c-0.249 0.299-0.407 0.525-0.557 0.869h-2.538v-0.869z"></path>
<path fill="#191919" d="M2.988 18.307h1.784c-0.131 0.261-0.216 0.564-0.223 0.869h-1.561v-0.869z"></path>
<path fill="#191919" d="M2.988 21.355c0.548 0 1.096 0 1.644 0-0.025 0.326 0.085 0.67 0.223 0.869h-1.867v-0.869z"></path>
<path fill="#191919" d="M2.988 24.625h2.363c0.012 0.335 0.123 0.625 0.334 0.869h-2.697v-0.869z"></path>
<path fill="#ff4000" d="M28.035 23.651c0 0-1.907 2.2-5.055 1.127-2.099-1.833-5.723-5.416-5.723-5.416l-2.173 0.652c0 0-1.63 0.181-2.029-0.072s-1.252-0.915-1.252-1.133c0-0.217-0.362-0.941 0.471-1.050s3.765-1.014 3.874-1.231 1.050-0.326 1.484-0.109c0.434 0.217 3.801 1.52 3.801 1.52l3.041-0.941c0 0 1.195 1.412 3.562 6.651z"></path>
<path fill="#ff4000" d="M6.372 24.602c0 0-0.145-0.507 0.072-0.796s1.267-1.376 1.448-1.448c0.181-0.072 0.905 0 1.159 0.253s0.398 0.615 0.398 0.833c0 0.217 0.579-0.507 1.448 0.109s0.253 1.557 0.253 1.557 0.724-0.072 1.267 0.579c0.543 0.652-0.253 1.376-0.253 1.376s0.724-0.109 1.194 0.434c0.471 0.543 0.109 1.267 0.109 1.267s-1.231 1.484-1.629 1.665c-0.398 0.181-0.905 0-0.905 0s-3.331-3.005-4.561-5.829z"></path>
<path fill="#ff4000" d="M6.408 22.719l0.543-0.434c0 0-1.376-1.484-0.362-4.272s2.426-3.15 2.426-3.15l3.874 1.955 0.869-0.253-4.851-2.425c0 0-1.855 0.867-2.918 3.583s0.421 4.997 0.421 4.997z"></path>
<path fill="#ff4000" d="M13.142 30.358l0.452-0.489c0 0 1.321 1.339 1.792 1.43s1.394-0.235 1.502-0.67c-0.833-0.959-2.606-2.914-2.606-2.914l0.471-0.38 3.385 3.53c0 0 1.303 0.308 1.611-0.796-0.498-1.011-4.324-4.352-4.272-4.561 0 0-0.036-0.616 0.525-0.434 0.507 0.308 4.417 4.489 4.417 4.489 0.386 0.091 1.448-0.597 1.412-0.959-0.054-0.452-4.946-5.205-4.909-5.259s0.058-0.642 0.565-0.334c0.507 0.308 4.761 4.869 4.761 4.869s1.177-0.235 1.321-1.068c0.145-0.833-0.072-0.978-0.072-0.978h0.833c0 0 0.036 1.394-0.579 1.955s-1.34 0.76-1.34 0.76-0.217 1.014-0.797 1.303c-0.579 0.29-1.231 0.434-1.231 0.434s-0.308 0.923-1.34 1.159c-1.032 0.235-1.81-0.109-1.81-0.109s-0.76 0.76-1.448 0.652c-1.068 0.109-2.643-1.629-2.643-1.629z"></path>
</svg>
