<?xml version="1.0" encoding="utf-8"?>
<!-- Generated by IcoMoon.io -->
<!DOCTYPE svg PUBLIC "-//W3C//DTD SVG 1.1//EN" "http://www.w3.org/Graphics/SVG/1.1/DTD/svg11.dtd">
<svg version="1.1" xmlns="http://www.w3.org/2000/svg" xmlns:xlink="http://www.w3.org/1999/xlink" width="33" height="32" viewBox="0 0 33 32">
<path fill="#191919" d="M14.873 0c-8.213 0-14.873 6.659-14.873 14.871s6.66 14.871 14.873 14.871c2.566 0 4.982-0.651 7.089-1.795 1.51-0.295 8.993 3.865 10.541 4.054-1.239-3.218-4.646-8.498-4.425-10.28 1.066-2.050 1.669-4.379 1.669-6.849 0-8.211-6.66-14.871-14.873-14.871zM14.785 2.719c6.771 0 12.261 5.49 12.261 12.26 0 2.036-0.497 3.957-1.375 5.647-0.182 1.469 2.626 5.822 3.648 8.475-1.276-0.156-7.445-3.585-8.69-3.342-1.737 0.944-3.728 1.48-5.844 1.48-6.771 0-12.262-5.49-12.262-12.26s5.491-12.26 12.262-12.26z"></path>
<path fill="#ff4000" d="M8.027 8.361c0 0-0.026 9.883 0.078 10.192 0.078 0.644 4.077 5.11 6.787 5.91 3.2-0.878 7.019-5.781 7.019-5.781l0.052-10.219h-4.18l-2.735-2.271-2.89 2.219-4.129-0.052zM9.173 9.533l3.412 0.043 2.388-1.833 2.26 1.876h3.454l-0.043 8.443c0 0-3.156 4.051-5.8 4.776-2.239-0.661-5.544-4.351-5.607-4.883-0.085-0.256-0.064-8.422-0.064-8.422z"></path>
<path fill="#191919" d="M11.072 15.174l1.187-0.671 1.755 1.858c0 0 4.284-4.697 5.006-4.8 0.568 0.31 0.516 0.619 0.516 0.619s-4.129 4.129-4.903 6.709c-1.755-1.29-3.561-3.716-3.561-3.716z"></path>
</svg>
