<?xml version="1.0" encoding="utf-8"?>
<!-- Generated by IcoMoon.io -->
<!DOCTYPE svg PUBLIC "-//W3C//DTD SVG 1.1//EN" "http://www.w3.org/Graphics/SVG/1.1/DTD/svg11.dtd">
<svg version="1.1" xmlns="http://www.w3.org/2000/svg" xmlns:xlink="http://www.w3.org/1999/xlink" width="46" height="32" viewBox="0 0 46 32">
<path fill="#191919" d="M29.879 0.159l0.212 2.762c-0.974-0.053-2.001 0.425-2.921 1.115l-2.337-1.859-1.487 1.593 1.912 1.806c-1.027 0.885-1.682 1.717-2.125 2.868l-2.815-0.372-0.372 2.284 2.337 0.425c-0.407 1.487-0.283 2.868 0 4.037l-2.39 0.425 0.212 2.231 2.868-0.425c0.478 1.169 1.222 2.337 1.965 3.081l-1.647 1.7 1.806 1.593 1.487-1.54c1.115 0.867 2.231 1.257 3.346 1.328-0.142 0.92-0.283 1.841-0.425 2.762l2.603 0.212 0.212-2.656c1.469 0.319 2.673 0.106 3.93-0.319 0.301 0.797 0.602 1.593 0.903 2.39l2.284-0.903c0 0-1.062-2.762-0.797-2.868 0.425 0.106 2.178-1.806 1.965-2.125 0.867 0.549 1.735 1.098 2.603 1.647l1.275-2.018c0 0-1.7-1.434-1.912-1.912 0.637-0.584 0.998-3.133 1.009-3.134l2.603-0.106-0.053-2.39c0 0-1.806 0.106-2.815 0.053 0-1.009-0.682-3.562-0.691-3.559l1.593-1.009-1.009-2.231c-0.35 0.135-1.487 0.637-2.39 1.115-0.159-0.956-2.125-2.337-2.55-2.337 0.389-0.708 0.779-1.417 1.169-2.125l-1.912-1.222c0 0-0.584 1.009-1.275 2.072-0.691-0.372-2.898-0.538-3.718-0.212-0.089-0.779-0.177-1.558-0.266-2.337l-2.39 0.159zM33.015 4.13c4.881 0 8.838 3.959 8.838 8.841s-3.958 8.842-8.838 8.842c-4.881 0-8.839-3.959-8.839-8.842s3.958-8.841 8.839-8.841z"></path>
<path fill="#ff4000" d="M7.443 2.52l0.158 2.059c-0.726-0.040-1.491 0.317-2.178 0.831l-1.742-1.386-1.108 1.188 1.425 1.346c-0.765 0.66-1.254 1.28-1.584 2.138l-2.098-0.277-0.277 1.702 1.742 0.317c-0.304 1.108-0.211 2.138 0 3.009l-1.782 0.317 0.158 1.663 2.138-0.317c0.356 0.871 0.911 1.742 1.465 2.296l-1.227 1.267 1.346 1.188 1.109-1.148c0.831 0.647 1.663 0.937 2.494 0.99-0.105 0.686-0.211 1.372-0.317 2.059l1.94 0.158 0.158-1.98c1.095 0.238 1.993 0.079 2.93-0.238 0.224 0.594 0.449 1.188 0.673 1.782l1.702-0.673c0 0-0.792-2.059-0.594-2.138 0.317 0.079 1.623-1.346 1.465-1.584 0.647 0.409 1.293 0.818 1.94 1.227l0.95-1.505c0 0-1.267-1.069-1.425-1.425 0.475-0.436 0.744-2.335 0.752-2.336l1.94-0.079-0.040-1.782c0 0-1.346 0.079-2.098 0.040 0-0.752-0.509-2.655-0.515-2.653l1.188-0.752-0.752-1.663c-0.261 0.101-1.108 0.475-1.782 0.831-0.119-0.713-1.584-1.742-1.9-1.742 0.29-0.528 0.581-1.056 0.871-1.584l-1.425-0.911c0 0-0.436 0.752-0.95 1.544-0.515-0.277-2.16-0.401-2.771-0.158-0.066-0.581-0.132-1.161-0.198-1.742l-1.782 0.119zM9.78 5.48c3.638 0 6.588 2.951 6.588 6.59s-2.95 6.59-6.588 6.59c-3.638 0-6.588-2.951-6.588-6.59s2.95-6.59 6.588-6.59z"></path>
<path fill="#ff4000" d="M17.93 22.886l0.074 0.967c-0.341-0.018-0.701 0.149-1.023 0.391l-0.819-0.651-0.521 0.558 0.67 0.632c-0.36 0.31-0.589 0.601-0.744 1.005l-0.986-0.13-0.13 0.8 0.818 0.149c-0.143 0.521-0.099 1.004 0 1.414l-0.837 0.149 0.074 0.781 1.004-0.149c0.167 0.409 0.428 0.819 0.688 1.079l-0.577 0.595 0.632 0.558 0.521-0.539c0.391 0.304 0.781 0.44 1.172 0.465-0.050 0.322-0.099 0.645-0.149 0.967l0.912 0.074 0.074-0.93c0.515 0.112 0.936 0.037 1.376-0.112 0.105 0.279 0.211 0.558 0.316 0.837l0.8-0.316c0 0-0.372-0.967-0.279-1.004 0.149 0.037 0.763-0.632 0.688-0.744 0.304 0.192 0.608 0.384 0.911 0.577l0.446-0.707c0 0-0.595-0.502-0.67-0.67 0.223-0.205 0.35-1.097 0.353-1.097l0.911-0.037-0.019-0.837c0 0-0.632 0.037-0.986 0.019 0-0.353-0.239-1.247-0.242-1.246l0.558-0.353-0.353-0.781c-0.122 0.047-0.521 0.223-0.837 0.391-0.056-0.335-0.744-0.818-0.893-0.818 0.136-0.248 0.273-0.496 0.409-0.744l-0.67-0.428c0 0-0.204 0.353-0.446 0.726-0.242-0.13-1.015-0.188-1.302-0.074-0.031-0.273-0.062-0.546-0.093-0.819l-0.837 0.056zM19.028 24.276c1.709 0 3.095 1.387 3.095 3.096s-1.386 3.096-3.095 3.096-3.095-1.387-3.095-3.096c0-1.709 1.386-3.096 3.095-3.096z"></path>
</svg>
