<?xml version="1.0" encoding="utf-8"?>
<!-- Generated by IcoMoon.io -->
<!DOCTYPE svg PUBLIC "-//W3C//DTD SVG 1.1//EN" "http://www.w3.org/Graphics/SVG/1.1/DTD/svg11.dtd">
<svg version="1.1" xmlns="http://www.w3.org/2000/svg" xmlns:xlink="http://www.w3.org/1999/xlink" width="32" height="32" viewBox="0 0 32 32">
<path fill="#ff4000" d="M14.88 9.887l0.051-2.547h-14.333l-0.051 19.769c0 0 0.101 1.876 1.671 2.077s21.676 0.134 21.676 0.134v-9.851l-1.823-0.067v7.371l-19.701 0.134v-16.888l12.51-0.134z"></path>
<path fill="#ff4000" d="M20.502 9.722c-1.114 4.507 3.191 4.102 3.241 3.95s4.609 4.913 6.331 5.976c2.051-0.203 1.57-2.228 1.57-2.228s-3.545-3.672-5.865-5.899c0.517-3.848-2.973-3.597-3.885-3.142 2.076 1.367 1.963 2.607 1.646 2.912s-1.14 0.861-3.039-1.57zM30.125 17.315c0.378 0 0.685 0.306 0.685 0.684s-0.307 0.684-0.685 0.684c-0.378 0-0.685-0.306-0.685-0.684s0.307-0.684 0.685-0.684z"></path>
<path fill="#333" d="M23.895 14.837c0 0-4.482 0.203-4.634-3.646s3.824-4.583 5.596-3.596c1.773 0.988 2.077 2.355 2.077 4.204 0.658 0.658 1.317 1.19 1.317 1.19l0.253-0.684 1.418-0.152v-2.33l-1.317-0.101-0.709-1.216 0.709-1.469-1.57-1.671-1.064 0.76-1.469-0.506-0.101-1.57h-2.482l-0.304 1.57-1.266 0.608-1.266-0.912-1.519 1.469 0.709 1.216-0.506 1.621-1.519 0.253v2.228l1.57 0.304 0.456 1.266-0.76 1.165 1.418 1.621 1.215-0.709 1.519 0.608 0.203 1.418 2.33-0.051 0.203-1.367 0.861-0.101-1.368-1.418z"></path>
</svg>
