<?xml version="1.0" encoding="utf-8"?>
<!-- Generated by IcoMoon.io -->
<!DOCTYPE svg PUBLIC "-//W3C//DTD SVG 1.1//EN" "http://www.w3.org/Graphics/SVG/1.1/DTD/svg11.dtd">
<svg version="1.1" xmlns="http://www.w3.org/2000/svg" xmlns:xlink="http://www.w3.org/1999/xlink" width="30" height="32" viewBox="0 0 30 32">
<path fill="#ff4000" d="M14.25 15.478l0.93 0.37-8.243 16.152-0.93-0.37z"></path>
<path fill="#191919" d="M6.738 24.723l5.766 1.847-0.169 0.528-5.766-1.847z"></path>
<path fill="#191919" d="M5.917 26.217l5.766 1.847-0.169 0.528-5.766-1.847z"></path>
<path fill="#191919" d="M5.056 27.711l5.766 1.847-0.169 0.527-5.766-1.847z"></path>
<path fill="#191919" d="M4.195 29.205l5.767 1.847-0.169 0.528-5.766-1.847z"></path>
<path fill="#191919" d="M14.202 23.802l-0.317 3.888 0.635 0.714 0.159 1.587h2.221c0 0 0.238-3.808 1.349-4.046s3.808 1.983 3.808 1.983l1.825-1.111c-0.065-1.139-0.266-2.888-0.406-3.776-0.045-0.287 0.193-0.548 0.367-0.548l4.006 0.198 0.952-1.746c-0.899-0.793-1.759-1.785-2.658-2.578-0.099-0.813-0.159-1.309 0.437-2.182l3.491-1.032v-1.904l-3.729-0.714c-0.291-0.595-0.581-1.428-0.397-2.38l2.063-2.38-1.428-1.666c-1.032 0.423-2.063 0.846-3.094 1.27-0.74-0.318-1.243-0.715-1.745-1.428l0.476-3.888-1.666-0.555-2.142 2.222c-1.005 0.132-1.693 0.185-2.777-0.317l-0.873-3.412h-1.904l-0.476 3.491c-0.555 0.688-1.032 0.899-2.142 0.873l-2.777-2.38-1.587 1.111 0.873 3.253c-0.344 0.979-0.688 1.64-1.508 1.745l-3.412-0.397-0.476 1.587 2.063 2.063c0.397 0.767 0.317 1.534 0 2.301l-3.332 1.507-0.079 1.904 3.174 0.476c0.714 0.793 0.873 1.349 0.952 2.38l-2.142 2.618 1.111 1.587 2.698-0.952c0.926-0.793 1.851-1.587 2.777-2.38-6.189-9.918 3.412-16.741 10.711-12.853s4.443 16.106-5.078 15.868z"></path>
</svg>
