<?xml version="1.0" encoding="utf-8"?>
<!-- Generated by IcoMoon.io -->
<!DOCTYPE svg PUBLIC "-//W3C//DTD SVG 1.1//EN" "http://www.w3.org/Graphics/SVG/1.1/DTD/svg11.dtd">
<svg version="1.1" xmlns="http://www.w3.org/2000/svg" xmlns:xlink="http://www.w3.org/1999/xlink" width="46" height="32" viewBox="0 0 46 32">
<path fill="#ff4000" d="M6.538 31.783c-5.863-1.303-6.297-6.948-6.297-6.948s-1.737-7.274 4.125-9.771c-1.411-4.56 1.737-6.948 1.737-6.948s4.777-3.257 8.36-0.543c1.411-4.777 9.771-9.554 17.588-6.731 8.685 3.474 8.251 13.897 8.251 13.897s5.697 2.007 5.863 8.577c0.166 6.569-7.166 8.685-7.166 8.685l-32.462-0.217zM8.001 30.387l29.59 0.198c0 0 6.683-1.929 6.532-7.917s-5.344-7.818-5.344-7.818 0.396-9.501-7.521-12.668c-7.125-2.573-14.746 1.781-16.032 6.136-3.266-2.474-7.62 0.495-7.62 0.495s-2.87 2.177-1.584 6.333c-5.344 2.276-3.761 8.907-3.761 8.907s0.396 5.146 5.74 6.334z"></path>
<path fill="#191919" d="M11.912 23.142l1.218 0.609 3.958-6.597 7.51 5.988 5.988-8.322-1.319-0.71-4.973 7.104-7.815-5.886z"></path>
<path fill="#191919" d="M11.607 23.244c1.457 0 2.639 1.181 2.639 2.639s-1.181 2.639-2.639 2.639c-1.457 0-2.639-1.181-2.639-2.639s1.181-2.639 2.639-2.639z"></path>
<path fill="#191919" d="M16.872 13.513c1.457 0 2.639 1.181 2.639 2.639s-1.181 2.638-2.639 2.638c-1.457 0-2.638-1.181-2.638-2.638s1.181-2.639 2.638-2.639z"></path>
<path fill="#191919" d="M25.28 20.338c1.457 0 2.639 1.182 2.639 2.638s-1.181 2.639-2.639 2.639c-1.457 0-2.638-1.182-2.638-2.639s1.181-2.638 2.638-2.638z"></path>
<path fill="#191919" d="M30.557 10.011c1.457 0 2.639 1.181 2.639 2.639s-1.182 2.639-2.639 2.639c-1.457 0-2.639-1.181-2.639-2.639s1.182-2.639 2.639-2.639z"></path>
</svg>
