<?xml version="1.0" encoding="utf-8"?>
<!-- Generated by IcoMoon.io -->
<!DOCTYPE svg PUBLIC "-//W3C//DTD SVG 1.1//EN" "http://www.w3.org/Graphics/SVG/1.1/DTD/svg11.dtd">
<svg version="1.1" xmlns="http://www.w3.org/2000/svg" xmlns:xlink="http://www.w3.org/1999/xlink" width="38" height="32" viewBox="0 0 38 32">
<path fill="#191919" d="M25.388 14.786c1.765-2.933 1.128-12.659-5.655-12.597s-8.877 8.193-6.352 12.765c2.526 4.573 3.021 3.318 2.715 4.573s-1.201 2.238-7.807 3.674c-6.606 1.436-8.515 7.282-8.269 8.639 3.145 0.309 38.213 0.073 38.213 0.073s1.526-7.107-11.432-9.699c-5.095-1.482-4.443-2.839-4.443-2.839l0.848-1.141c-0.711-0.096-1.684 0.009-2.24-0.135-1.319-1.073-1.227-2.747-0.103-3.683 0.744-0.010 3.556 0.045 3.556 0.045 0.277 0.194 0.807 0.329 0.969 0.325z"></path>
<path fill="#ff4000" d="M21.336 15.356c-0.431 0.386-0.384 1.603 0 1.85 0.369 0.063 2.713 0.046 2.899 0.031s0.216-0.509 0.216-0.509 2.189-0.57 2.96-1.434c0.771-0.864 1.233-2.097 1.264-2.528 0.6 0.076 0.956-0.555 0.956-0.555-0.020-1.182-0.041-2.364-0.061-3.546-0.227-0.287-0.561-0.436-0.956-0.401 0 0-0.956-8.079-9.158-8.264s-9.528 7.616-9.405 8.294c-0.138 0.232-0.678 0.093-0.678 0.093l-0.031 3.762 0.339 0.555 1.758 0.031 0.062-4.471h-0.555c0 0 1.017-7.739 8.356-7.431s8.31 6.398 8.387 7.030c0.077 0.633 0.063 0.401 0.062 0.401l-0.308 0.015v4.363l0.432 0.062c0.045 0.007-0.571 2.575-3.099 3.268-0.498 0.078-0.589-0.258-0.323-0.586-0.519-0.005-2.076-0.021-3.114-0.031z"></path>
</svg>
