<?xml version="1.0" encoding="utf-8"?>
<!-- Generated by IcoMoon.io -->
<!DOCTYPE svg PUBLIC "-//W3C//DTD SVG 1.1//EN" "http://www.w3.org/Graphics/SVG/1.1/DTD/svg11.dtd">
<svg version="1.1" xmlns="http://www.w3.org/2000/svg" xmlns:xlink="http://www.w3.org/1999/xlink" width="35" height="32" viewBox="0 0 35 32">
<path fill="#333" d="M7.486 12.37c0.023-1.509 2.374-0.83 2.561-0.421s0.702 0.643 1.17 0.456c0.468-0.187 1.287-0.433 1.158 0.55-0.456 1.614-1.364 2.626-2.643 2.901s-2.118-1.633-2.328-2.714c-0.386-0.702 0.082-0.772 0.082-0.772zM6.599 11.879c0 0-0.68 0.352-0.188 1.501s1.519 3.4 3.157 3.424 2.917-1.595 3.55-3.306c0.633-1.712 0.094-1.641 0.094-1.641s0.352-3.377-2.603-3.893c-2.955-0.516-4.995 2.040-4.010 3.916z"></path>
<path fill="#333" d="M14.984 14.956c0.023-1.509 2.374-0.83 2.562-0.421s0.702 0.643 1.17 0.456c0.468-0.187 1.287-0.433 1.158 0.55-0.456 1.614-1.364 2.626-2.643 2.901s-2.118-1.633-2.328-2.714c-0.386-0.702 0.082-0.772 0.082-0.772zM14.097 14.464c0 0-0.68 0.352-0.188 1.501s1.519 3.4 3.157 3.424c1.638 0.023 2.917-1.595 3.55-3.306s0.094-1.641 0.094-1.641 0.352-3.377-2.603-3.893c-2.955-0.516-4.995 2.040-4.010 3.916z"></path>
<path fill="#333" d="M22.623 12.285c0.023-1.509 2.374-0.83 2.561-0.421s0.702 0.643 1.17 0.456c0.468-0.187 1.287-0.433 1.158 0.55-0.456 1.614-1.364 2.626-2.643 2.901s-2.118-1.633-2.328-2.714c-0.386-0.702 0.082-0.772 0.082-0.772zM21.736 11.793c0 0-0.68 0.352-0.188 1.501s1.519 3.4 3.157 3.424 2.917-1.595 3.55-3.306c0.633-1.712 0.094-1.641 0.094-1.641s0.352-3.377-2.603-3.893c-2.955-0.516-4.995 2.040-4.010 3.916z"></path>
<path fill="#333" d="M7.724 15.725c1.899 1.548 4.033 0.094 4.033 0.094s0.633 0.797 1.712 0.938c0.281 0.961 0.844 1.688 0.844 1.688s-1.431 0.117-2.298 0.821c-0.868 0.703-1.094 2.493-1.923 5.042-2.118-1.86-4.025-3.65-4.948-7.269 0.797-0.258 1.595-0.516 2.392-0.774l0.188-0.539zM8.287 16.616c0 0-0.094 0.985 0 1.313s0.75 1.126 1.008 0.727c0.258-0.399-0.211-2.040-0.211-2.040h-0.797zM11.138 16.488l-0.79 0.11c0 0-0.237 1.691 0.074 2.050s0.851-0.522 0.898-0.86c0.047-0.338-0.182-1.301-0.182-1.301z"></path>
<path fill="#333" d="M26.912 15.66c-1.9 1.548-4.034 0.094-4.034 0.094s-0.633 0.797-1.712 0.938c-0.281 0.962-0.844 1.688-0.844 1.688s1.43 0.117 2.298 0.821c0.868 0.703 1.094 2.494 1.923 5.042 2.118-1.86 4.026-3.651 4.948-7.27-0.797-0.258-1.595-0.516-2.392-0.774l-0.188-0.539zM26.349 16.551c0 0 0.094 0.985 0 1.313s-0.75 1.126-1.008 0.727c-0.258-0.399 0.211-2.040 0.211-2.040h0.797zM23.499 16.423l0.79 0.111c0 0 0.237 1.691-0.074 2.050s-0.85-0.522-0.898-0.86c-0.047-0.338 0.182-1.301 0.182-1.301z"></path>
<path fill="#333" d="M15.235 18.241l-0.188 0.539c-0.915 0.891-1.97 0.399-2.579 1.219-0.555 0.477-1.274 2.408-1.501 4.878 3.314 2.282 9.977 2.15 12.733-0.141-0.194-2.235-0.988-4.789-2.486-5.229-0.727 0-1.852-0.516-1.946-1.172 0 0-2.134 1.454-4.033-0.094zM15.798 19.132h0.797c0 0 0.469 1.641 0.211 2.040s-0.915-0.399-1.008-0.727c-0.094-0.328 0-1.313 0-1.313zM18.649 19.005c0 0 0.229 0.962 0.182 1.3s-0.587 1.219-0.898 0.86c-0.311-0.359-0.074-2.050-0.074-2.050l0.79-0.11z"></path>
<path fill="#ff4000" d="M8.85 0.013c1.501-0.141 2.486 0.844 1.829 2.814-13.622 9.993-5.203 24.752 5.323 25.658 8.728 0.751 21.204-8.637 11.685-22.854-0.174-0.26-0.805 0.925-1.016 0.995s-0.633 0.141-0.938-0.281c-0.305-0.422-2.603-4.948-2.603-4.948-0.063-0.594 0.338-1.152 0.868-1.36 1.884 0.117 3.768 0.234 5.651 0.352 0.414 0.352 0.594 0.985 0.399 1.548l-0.469 0.75c4.054 5 5.81 9.343 4.565 15.843-0.856 6.382-8.749 14.409-17.626 13.381-8.416-0.595-15.574-6.921-16.519-16.425 0.193-6.928 3.554-12.662 8.85-15.473z"></path>
</svg>
