<?xml version="1.0" encoding="utf-8"?>
<!-- Generated by IcoMoon.io -->
<!DOCTYPE svg PUBLIC "-//W3C//DTD SVG 1.1//EN" "http://www.w3.org/Graphics/SVG/1.1/DTD/svg11.dtd">
<svg version="1.1" xmlns="http://www.w3.org/2000/svg" xmlns:xlink="http://www.w3.org/1999/xlink" width="45" height="32" viewBox="0 0 45 32">
<path fill="#191919" d="M0 24.446l4.582 7.554c0 0 7.926-4.954 8.792-4.954s12.508 3.468 13.499 3.468c0.991 0 2.724 0.495 3.963-0.619s14.365-15.975 14.365-16.595c0-0.619 0.371-3.839-3.096-3.839-3.467 2.105-11.393 8.917-11.393 8.917 4.743 3.952 0.731 7.424-4.087 6.563-3.467-0.619-5.82-1.362-5.82-1.362l0.372-1.115c0 0 6.44 1.858 7.678 1.61s3.096-0.743 2.601-2.477c-0.495-1.734-1.734-1.981-3.22-2.105s-8.793-1.981-11.269-2.105c-2.477-0.124-3.096-0.495-6.563 1.115s-10.403 5.944-10.403 5.944z"></path>
<path fill="#ff4000" d="M13.746 10.947h5.573v4.458h-5.573z"></path>
<path fill="#ff4000" d="M20.805 7.851h5.449v7.554h-5.449z"></path>
<path fill="#ff4000" d="M27.759 3.269h5.325v12.136h-5.325z"></path>
<path fill="#191919" d="M13.742 6.684v1.174c0 0 2.841-0.062 3.088-0.371s0.432 0.371 0.432 0.741 1.421-1.853 1.174-2.038c-0.247-0.185-1.853-0.803-1.853-0.803l0.124 1.112c0 0-2.718 0.556-2.965 0.185z"></path>
<path fill="#191919" d="M19.307 5.232l0.246 1.147c0 0 2.765-0.657 2.942-1.010s0.501 0.271 0.578 0.634c0.078 0.362 1-2.11 0.72-2.239s-1.98-0.396-1.98-0.396l0.354 1.061c0 0-2.54 1.114-2.86 0.803z"></path>
<path fill="#191919" d="M24.859 2.367l0.471 1.075c0 0 2.577-1.198 2.68-1.58s0.545 0.166 0.694 0.505c0.149 0.339 0.557-2.268 0.256-2.338s-2.019 0.009-2.019 0.009l0.56 0.969c0 0-2.266 1.601-2.641 1.36z"></path>
</svg>
