<?xml version="1.0" encoding="utf-8"?>
<!-- Generated by IcoMoon.io -->
<!DOCTYPE svg PUBLIC "-//W3C//DTD SVG 1.1//EN" "http://www.w3.org/Graphics/SVG/1.1/DTD/svg11.dtd">
<svg version="1.1" xmlns="http://www.w3.org/2000/svg" xmlns:xlink="http://www.w3.org/1999/xlink" width="32" height="32" viewBox="0 0 32 32">
<path fill="#333" d="M12.525 9.373l0.044-2.139h-7.228c0 0-0.904-0.157-0.842 0.746s0.044 6.070 0.044 6.070h1.552v-4.726l6.43 0.050z"></path>
<path fill="#333" d="M23.098 9.373l-0.044-2.139h5.865c0 0 0.904-0.157 0.842 0.746s-0.044 6.988-0.044 6.988h-1.552v-5.644l-5.066 0.050z"></path>
<path fill="#ff4000" d="M4.188 15.393v11.891c0 0 0.089 1.343 1.109 1.493s23.769 0.050 23.769 0.050 0.887 0.497 0.843-2.189c-0.044-2.686 0-9.652 0-9.652h-1.951v9.005h-21.773l-0.089-9.801h4.878l0.71-1.443 0.931 8.856 1.508-15.423 0.976 7.513 1.020-2.935 0.621 3.433h4.479l0.532-5.97 1.020 8.209 1.286-4.080 0.576 1.791h5.233v-1.144h-4.967l-1.153-2.935-0.754 3.93-1.375-9.602-0.887 8.856h-3.681l-0.976-5.075-0.798 3.234-1.109-10.746-1.463 16.916-0.887-7.314-1.064 3.035-6.563 0.1z"></path>
</svg>
