<?xml version="1.0" encoding="utf-8"?>
<!-- Generated by IcoMoon.io -->
<!DOCTYPE svg PUBLIC "-//W3C//DTD SVG 1.1//EN" "http://www.w3.org/Graphics/SVG/1.1/DTD/svg11.dtd">
<svg version="1.1" xmlns="http://www.w3.org/2000/svg" xmlns:xlink="http://www.w3.org/1999/xlink" width="23" height="32" viewBox="0 0 23 32">
<path fill="#ff4000" d="M8.426 31.024c0.072 0.412 0.392 0.846 0.71 0.976l1.698-0.703c0 0 0.095-0.834 0.556-1.244s0.365-0.897 0.431-1.268c-0.089-0.307-0.291-0.702-0.305-0.782l0.729-0.55 0.269-2.237c0 0-0.112-1.031-0.103-1.379s0.575-0.735 0.813-1.178c0.237-0.443 0.8-2.779 0.8-2.779l0.645-0.382 0.153-0.924c0 0 3.642-1.182 4.479-3.595 0.411-1.183 0.311-2.291 0.049-3.222s-0.546-0.942-0.787-1.416c0.387 7.034-6.155 7.123-7.875 6.612-0.473-0.141 0.752 0.439 0.652 0.9-0.723 3.354-2.015 8.394-2.915 13.173z"></path>
<path fill="#191919" d="M17.855 0c-3.001 0-5.434 2.433-5.434 5.434s2.433 5.434 5.434 5.434 5.434-2.433 5.434-5.434c0-3.001-2.433-5.434-5.434-5.434zM17.855 0.725c2.601 0 4.709 2.109 4.709 4.709s-2.109 4.709-4.709 4.709c-2.6 0-4.709-2.109-4.709-4.709s2.109-4.709 4.709-4.709z"></path>
<path fill="#191919" d="M12.081 5.453c-1.755 0.283-3.882 1.025-4.842 3.393-0.312 0.889-0.766 2.963 0.177 4.418 0.174 0.141-0.606 1.339-0.247 1.944 0.387-0.177-7.139 10.172-7.139 10.172-0.091 0.409 0.039 0.932 0.282 1.173h1.838c0 0 0.407-0.734 0.99-0.937s0.68-0.689 0.883-1.007c0.035-0.318 0-0.76 0.018-0.839l0.884-0.23 1.431-1.829c0 0-0.035-1.131 0.106-1.449s0.813-0.459 1.202-0.777 1.803-2.262 1.803-2.262l0.742-0.106 0.495-0.795c0 0 3.817 0.3 5.513-1.608s3.016-6.838-2.324-8.996c-0.145 0.705 0.451 1.786 0.451 1.786s1.99 1.865 0.318 1.979c-1.672 0.114-2.509-1.802-2.509-1.802-0.024-0.742-0.047-1.484-0.071-2.227z"></path>
</svg>
