<?xml version="1.0" encoding="utf-8"?>
<!-- Generated by IcoMoon.io -->
<!DOCTYPE svg PUBLIC "-//W3C//DTD SVG 1.1//EN" "http://www.w3.org/Graphics/SVG/1.1/DTD/svg11.dtd">
<svg version="1.1" xmlns="http://www.w3.org/2000/svg" xmlns:xlink="http://www.w3.org/1999/xlink" width="32" height="32" viewBox="0 0 32 32">
<path fill="#191919" d="M3.915 23.674c-1.873 3.492 1.004 4.668 3.258 4.657 3.394 0.111 13.728-0.048 18.536-0.048 2.696-0.331 3.529-2.346 2.541-4.189l-9.926-18.518c-1.032-1.925-3.353-2.518-4.849 0.271l-9.561 17.826zM1.029 22.561l10.301-19.687c2.061-3.939 7.58-3.084 9.031-0.381l11.225 20.905c1.39 2.588-0.687 7.886-4.473 8.351-6.751 0-16.822 0.141-21.589-0.015-3.166 0.015-7.074-4.243-4.494-9.174z"></path>
<path fill="#ff4000" d="M15.86 20.497c1.243 0 2.25 1.008 2.25 2.25s-1.008 2.25-2.25 2.25c-1.242 0-2.25-1.008-2.25-2.25s1.008-2.25 2.25-2.25z"></path>
<path fill="#ff4000" d="M15.86 9.245c1.243 0 2.354 1.002 2.499 2.236 0.176 1.492-1.656 5.594-2.423 7.725-0.603-2.289-2.327-5.46-2.327-7.711 0-1.243 1.008-2.25 2.25-2.25z"></path>
</svg>
