<?xml version="1.0" encoding="utf-8"?>
<!-- Generated by IcoMoon.io -->
<!DOCTYPE svg PUBLIC "-//W3C//DTD SVG 1.1//EN" "http://www.w3.org/Graphics/SVG/1.1/DTD/svg11.dtd">
<svg version="1.1" xmlns="http://www.w3.org/2000/svg" xmlns:xlink="http://www.w3.org/1999/xlink" width="29" height="32" viewBox="0 0 29 32">
<path fill="#ff4000" d="M-0 14.298h5.901v16.378h-5.901z"></path>
<path fill="#191919" d="M6.985 15.382c-0.482 0 4.576-0.723 5.178-1.927s3.252-3.252 3.252-3.252c0 0-1.927-7.587-1.806-9.153 7.225-2.349 14.995-0.178 15.776 0.843 0 0-3.436 9.034-2.89 11.079 2.288 1.084 2.649 2.77 2.409 3.733s-2.168 1.325-0.963 2.168c1.204 0.843 1.204 2.529 0.482 3.372s-2.168-0.361-0.963 1.445c1.204 1.806 0.12 2.288-0.963 3.011s-1.927 0.602-1.084 1.686c0.843 1.084-0.361 2.649-0.843 3.252s-8.791 0.482-9.875-0.602c-1.084-1.084-7.587-2.77-7.587-2.77l-0.12-12.886zM17.462 13.094h6.985c0 0 1.686-6.624 1.806-7.587s-0.541-1.987-1.625-1.987c-0.543-1.141-1.627-2.048-3.434-2.168s-3.732 1.507-3.492 2.108c0 0-1.204 0.301-1.445 1.384s1.204 8.25 1.204 8.25z"></path>
<path fill="#ff4000" d="M20.961 6.421c1.128 0 2.042 0.914 2.042 2.042s-0.914 2.042-2.042 2.042c-1.128 0-2.042-0.914-2.042-2.042s0.914-2.042 2.042-2.042z"></path>
</svg>
