<?xml version="1.0" encoding="utf-8"?>
<!-- Generated by IcoMoon.io -->
<!DOCTYPE svg PUBLIC "-//W3C//DTD SVG 1.1//EN" "http://www.w3.org/Graphics/SVG/1.1/DTD/svg11.dtd">
<svg version="1.1" xmlns="http://www.w3.org/2000/svg" xmlns:xlink="http://www.w3.org/1999/xlink" width="32" height="32" viewBox="0 0 32 32">
<path fill="#333" d="M8.302 0c-0.577 0-1.049 0.511-1.049 1.136v11.772c0 0.625 0.472 1.136 1.049 1.136h15.194c0.577 0 1.050-0.511 1.050-1.136v-11.772c0-0.625-0.472-1.136-1.050-1.136h-15.194zM9.661 2.446h12.476v9.153h-12.476v-9.153z"></path>
<path fill="#ff4000" d="M15.938 15.793c0.419 0 0.759 2.501 0.759 5.585v-3.883c0 3.085-0.34 5.585-0.759 5.585s-0.759-2.501-0.759-5.585v3.883c0-3.085 0.34-5.585 0.759-5.585z"></path>
<path fill="#ff4000" d="M3.277 22.435l-0.029-2.695c0 0-0.043-0.67 0.626-0.67s24.425-0.013 24.425-0.013c0 0 0.498 0.144 0.498 0.726s-0.015 2.593-0.015 2.593c0 0-0.218 0.641-0.786 0.597s-0.801-0.524-0.787-0.612c0.015-0.087 0-1.704 0-1.704l-22.346-0.026-0.012 1.716c0 0-0.728 1.224-1.573 0.087z"></path>
<path fill="#333" d="M0.495 25.377c-0.272 0-0.495 0.241-0.495 0.536v5.551c0 0.295 0.223 0.536 0.495 0.536h7.165c0.272 0 0.495-0.241 0.495-0.536v-5.551c0-0.295-0.223-0.536-0.495-0.536h-7.165zM1.136 26.531h5.883v4.316h-5.883v-4.316z"></path>
<path fill="#ff4000" d="M12.317 25.377c-0.272 0-0.495 0.241-0.495 0.536v5.551c0 0.295 0.223 0.536 0.495 0.536h7.165c0.272 0 0.495-0.241 0.495-0.536v-5.551c0-0.295-0.223-0.536-0.495-0.536h-7.165zM12.958 26.531h5.883v4.316h-5.883v-4.316z"></path>
<path fill="#333" d="M24.139 25.377c-0.272 0-0.495 0.241-0.495 0.536v5.551c0 0.295 0.223 0.536 0.495 0.536h7.165c0.272 0 0.495-0.241 0.495-0.536v-5.551c0-0.295-0.223-0.536-0.495-0.536h-7.165zM24.78 26.531h5.883v4.316h-5.883v-4.316z"></path>
</svg>
